<svg xmlns="http://www.w3.org/2000/svg" xmlns:xlink="http://www.w3.org/1999/xlink" width="500" zoomAndPan="magnify" viewBox="0 0 375 374.999991" height="500" preserveAspectRatio="xMidYMid meet" version="1.0"><defs><clipPath id="cc54532050"><path d="M 48.792969 48.792969 L 326.292969 48.792969 L 326.292969 326.292969 L 48.792969 326.292969 Z M 48.792969 48.792969 " clip-rule="nonzero"/></clipPath></defs><g clip-path="url(#cc54532050)"><path fill="#ffffff" d="M 130.082031 252.21875 C 139.101562 239.5 162.199219 230.957031 187.554688 230.957031 C 212.914062 230.957031 236.011719 239.5 245.03125 252.21875 C 246.984375 254.972656 250.800781 255.621094 253.550781 253.667969 C 256.304688 251.714844 256.953125 247.898438 255 245.144531 C 243.621094 229.097656 217.148438 218.730469 187.554688 218.730469 C 157.964844 218.730469 131.492188 229.097656 120.109375 245.144531 C 118.15625 247.898438 118.808594 251.714844 121.558594 253.667969 C 122.632812 254.429688 123.867188 254.792969 125.089844 254.792969 C 127.003906 254.792969 128.890625 253.898438 130.082031 252.21875 Z M 240.429688 130.097656 C 232.792969 130.097656 226.605469 137.484375 226.605469 146.601562 C 226.605469 155.714844 232.792969 163.105469 240.429688 163.105469 C 248.066406 163.105469 254.257812 155.714844 254.257812 146.601562 C 254.257812 137.484375 248.066406 130.097656 240.429688 130.097656 Z M 134.679688 130.097656 C 127.046875 130.097656 120.855469 137.484375 120.855469 146.601562 C 120.855469 155.714844 127.046875 163.105469 134.679688 163.105469 C 142.316406 163.105469 148.507812 155.714844 148.507812 146.601562 C 148.507812 137.484375 142.316406 130.097656 134.679688 130.097656 Z M 187.554688 61.023438 C 117.785156 61.023438 61.023438 117.785156 61.023438 187.554688 C 61.023438 257.324219 117.785156 314.085938 187.554688 314.085938 C 257.324219 314.085938 314.085938 257.324219 314.085938 187.554688 C 314.085938 117.785156 257.324219 61.023438 187.554688 61.023438 Z M 187.554688 326.3125 C 150.492188 326.3125 115.648438 311.878906 89.441406 285.671875 C 63.234375 259.464844 48.800781 224.621094 48.800781 187.554688 C 48.800781 150.492188 63.234375 115.648438 89.441406 89.441406 C 115.648438 63.234375 150.492188 48.800781 187.554688 48.800781 C 224.621094 48.800781 259.464844 63.234375 285.671875 89.441406 C 311.878906 115.648438 326.3125 150.492188 326.3125 187.554688 C 326.3125 224.621094 311.878906 259.464844 285.671875 285.671875 C 259.464844 311.878906 224.621094 326.3125 187.554688 326.3125 " fill-opacity="1" fill-rule="nonzero"/></g></svg>